# xmcd
#
# Track frame offsets:
# 182
# 28592
# 43630
# 57892
# 81457
# 94555
# 111260
# 138735
# 154310
# 171462
# 188452
# 205237
# 221677
#
# Disc length: 3341 seconds
#
#
# Revision: 5
# Processed by: cddbd v1.5.2PL0 Copyright (c) Steve Scherf et al.
# Submitted via: FreeRIP 2.951 
#
DISCID=ba0d0b0d
DTITLE=Taj Mahal - Shoutin' In Key [LIVE]
DYEAR=2000
DGENRE=Blues
TTITLE0=Honky Tonk
TTITLE1=EZ Rider
TTITLE2=Aint' That A Lot Of Love
TTITLE3=Ev'ry Wind (In The River)
TTITLE4=Stranger in My Own Home Town
TTITLE5=Woulda Coulda Shoulda
TTITLE6=Leavin' Trunk
TTITLE7=Rain from the Sky
TTITLE8=Mailbox Blues
TTITLE9=Cruisin'
TTITLE10=Corrina
TTITLE11=The Hoochie Coochie Coo
TTITLE12=Sentidos Dulce
EXTD=Henry Saint Clair Fredericks, better known by the stage name Taj Mahal (born May 17, 1942), is an American blues musician.\nHe was born in Harlem in New York City, but grew up in Springfield, Massachusetts. \nHe has received two Grammy Awards in the
EXTD=category Best Contemporary Blues Album, the first in 1997 for Señor Blues, and again in 2000 for Shoutin' In Key.\n
EXTT0=
EXTT1=
EXTT2=
EXTT3=
EXTT4=
EXTT5=
EXTT6=
EXTT7=
EXTT8=
EXTT9=
EXTT10=
EXTT11=
EXTT12=
PLAYORDER=
